<svg xmlns="http://www.w3.org/2000/svg" xmlns:xlink="http://www.w3.org/1999/xlink" width="300" zoomAndPan="magnify" viewBox="0 0 224.87999 225" height="300" preserveAspectRatio="xMidYMid meet" version="1.0"><defs><clipPath id="755f4e259c"><path d="M 64 139 L 96 139 L 96 199.160156 L 64 199.160156 Z M 64 139 " clip-rule="nonzero"/></clipPath><clipPath id="27941c0454"><path d="M 117.433594 84.75 L 162.609375 84.75 L 162.609375 155.863281 L 117.433594 155.863281 Z M 117.433594 84.75 " clip-rule="nonzero"/></clipPath><clipPath id="e2c05cbd06"><path d="M 101 26.003906 L 120 26.003906 L 120 39 L 101 39 Z M 101 26.003906 " clip-rule="nonzero"/></clipPath></defs><path fill="#2a7e64" d="M 123.253906 141.097656 C 123.253906 141.097656 127.945312 176.410156 119.597656 184.566406 C 116.671875 187.410156 111.703125 171.234375 111.183594 169.226562 C 110.726562 167.460938 105.125 144.515625 107.195312 144.136719 C 107.210938 144.132812 123.253906 141.097656 123.253906 141.097656 " fill-opacity="1" fill-rule="nonzero"/><path fill="#236b54" d="M 107.195312 144.136719 C 105.625 144.425781 108.484375 157.757812 110.144531 164.90625 C 110.726562 163.667969 111.546875 162.628906 112.644531 162.003906 C 116.28125 159.875 120.6875 159.804688 124.566406 161.128906 C 124.535156 150.753906 123.253906 141.097656 123.253906 141.097656 C 123.253906 141.097656 107.210938 144.132812 107.195312 144.136719 " fill-opacity="1" fill-rule="nonzero"/><g clip-path="url(#755f4e259c)"><path fill="#7f248d" d="M 88.726562 139.648438 C 88.726562 139.648438 67.167969 143.96875 64.511719 166.902344 C 64.511719 166.902344 64.84375 191.828125 82.425781 199.140625 C 82.425781 199.140625 96.6875 165.90625 95.027344 150.949219 L 88.726562 139.648438 " fill-opacity="1" fill-rule="nonzero"/></g><path fill="#752181" d="M 95.027344 150.949219 L 88.726562 139.648438 C 88.726562 139.648438 74.730469 142.457031 67.902344 155.546875 C 70.699219 154.640625 73.703125 154.445312 76.703125 155.160156 C 86.132812 157.695312 89.675781 166.566406 90.816406 176.023438 C 93.550781 167.003906 95.734375 157.316406 95.027344 150.949219 " fill-opacity="1" fill-rule="nonzero"/><path fill="#1082ce" d="M 111.285156 149.285156 C 111.285156 149.285156 108.800781 185.164062 98.382812 193.734375 C 97.96875 194.078125 97.535156 194.378906 97.09375 194.628906 C 97.09375 194.628906 90.574219 159.660156 92.492188 151.207031 L 111.285156 149.285156 " fill-opacity="1" fill-rule="nonzero"/><path fill="#0d6cae" d="M 92.492188 151.207031 C 91.683594 154.773438 92.375 163.046875 93.445312 171.429688 C 94.949219 167.03125 98.269531 163.660156 102.941406 162.722656 C 105.230469 162.238281 107.519531 162.246094 109.714844 162.652344 C 110.878906 155.125 111.285156 149.285156 111.285156 149.285156 L 92.492188 151.207031 " fill-opacity="1" fill-rule="nonzero"/><path fill="#72131f" d="M 138.738281 155.007812 C 128.492188 154.488281 118.355469 152.539062 108.070312 152.671875 C 97.496094 152.8125 87.117188 155.425781 76.535156 155.476562 C 72.3125 155.496094 72.308594 162.054688 76.535156 162.035156 C 86.917969 161.988281 97.105469 159.554688 107.472656 159.25 C 117.949219 158.9375 128.304688 161.039062 138.738281 161.566406 C 142.960938 161.78125 142.941406 155.21875 138.738281 155.007812 " fill-opacity="1" fill-rule="nonzero"/><path fill="#601019" d="M 138.738281 155.007812 C 128.492188 154.488281 118.355469 152.539062 108.070312 152.671875 C 97.496094 152.8125 87.117188 155.425781 76.535156 155.476562 C 75.019531 155.484375 74.050781 156.332031 73.621094 157.417969 C 77.335938 158.683594 81.050781 157.636719 84.765625 157.636719 C 84.765625 159.035156 85.113281 160.300781 85.660156 161.488281 C 91.285156 160.90625 96.886719 160.015625 102.519531 159.539062 C 103.03125 158.335938 103.457031 157.09375 103.789062 155.761719 C 107.53125 157.011719 111.582031 155.449219 114.703125 156.386719 C 116.085938 156.804688 116.609375 158.019531 116.871094 159.515625 C 122.464844 159.933594 128.042969 160.699219 133.632812 161.199219 C 135.316406 158.570312 138.289062 157.488281 141.632812 157.0625 C 141.199219 155.964844 140.238281 155.082031 138.738281 155.007812 " fill-opacity="1" fill-rule="nonzero"/><path fill="#f9a90c" d="M 97.066406 151.519531 L 93.394531 151.167969 C 92.4375 154.414062 92.589844 157.871094 93.144531 161.300781 C 94.1875 161.535156 97.320312 162.085938 98.609375 160.675781 C 96.898438 158.070312 96.5 154.644531 97.066406 151.519531 " fill-opacity="1" fill-rule="nonzero"/><path fill="#fbc108" d="M 98.539062 160.351562 C 98.539062 160.351562 102.863281 159.484375 98.539062 151.6875 L 96.753906 151.519531 C 96.1875 154.644531 96.585938 158.070312 98.296875 160.675781 C 98.386719 160.578125 98.46875 160.46875 98.539062 160.351562 " fill-opacity="1" fill-rule="nonzero"/><path fill="#fbc108" d="M 93.707031 151.167969 L 90.085938 150.824219 C 90.085938 150.824219 83.167969 156.019531 88.785156 162.519531 C 88.785156 162.519531 92.246094 164.683594 93.109375 161.21875 C 93.109375 161.21875 93.238281 161.253906 93.457031 161.300781 C 92.902344 157.871094 92.75 154.414062 93.707031 151.167969 " fill-opacity="1" fill-rule="nonzero"/><g clip-path="url(#27941c0454)"><path fill="#97c822" d="M 118.847656 112.0625 C 119.878906 105.359375 123.480469 97.621094 126.570312 91.945312 C 131.605469 82.695312 143.859375 82.988281 150.820312 89.464844 C 157.878906 96.023438 162.609375 107.089844 162.609375 116.707031 C 162.609375 127.023438 158.492188 139.40625 150.769531 146.628906 C 143.046875 153.335938 129.660156 161.589844 122.453125 150.238281 C 116.273438 141.46875 116.789062 122.382812 118.847656 112.0625 " fill-opacity="1" fill-rule="nonzero"/></g><path fill="#97c822" d="M 139.957031 84.207031 C 139.421875 84.328125 138.917969 84.4375 138.429688 84.539062 C 137.914062 84.574219 137.394531 84.632812 136.867188 84.722656 L 139.957031 84.207031 " fill-opacity="1" fill-rule="nonzero"/><path fill="#8cba1f" d="M 144.011719 134.828125 C 142.140625 140.453125 138.710938 145.453125 134.035156 149.199219 C 143.390625 145.453125 151.496094 138.265625 154.304688 128.578125 C 157.734375 116.082031 155.238281 104.210938 149.9375 92.648438 C 149.332031 91.4375 149.253906 89.96875 149.773438 88.574219 C 142.6875 82.984375 131.363281 83.140625 126.570312 91.945312 C 123.480469 97.621094 119.878906 105.359375 118.847656 112.0625 C 116.789062 122.382812 116.273438 141.46875 122.453125 150.238281 C 122.824219 150.828125 123.21875 151.359375 123.621094 151.847656 C 131.585938 148.03125 138.382812 142.078125 144.011719 134.828125 " fill-opacity="1" fill-rule="nonzero"/><path fill="#97c822" d="M 139.957031 84.207031 C 139.421875 84.328125 138.917969 84.4375 138.429688 84.539062 C 137.914062 84.574219 137.394531 84.632812 136.867188 84.722656 L 139.957031 84.207031 " fill-opacity="1" fill-rule="nonzero"/><path fill="#97c822" d="M 136.867188 84.722656 L 139.957031 84.207031 C 139.421875 84.328125 138.917969 84.4375 138.429688 84.539062 C 137.914062 84.574219 137.394531 84.632812 136.867188 84.722656 " fill-opacity="1" fill-rule="nonzero"/><path fill="#c2152c" d="M 84.320312 121.027344 C 83.039062 117.34375 82.339844 113.378906 82.339844 109.25 C 82.339844 89.722656 97.902344 73.894531 117.097656 73.894531 C 136.292969 73.894531 151.851562 89.722656 151.851562 109.25 C 151.851562 117.046875 149.109375 124.433594 143.78125 130.40625 C 141.003906 133.519531 137.722656 135.949219 134.542969 138.609375 C 130.910156 141.652344 128.277344 145.675781 124.613281 148.660156 C 119.5625 152.769531 112.945312 154.78125 106.484375 154.78125 C 92.019531 154.78125 80.292969 144.921875 80.292969 132.753906 C 80.292969 128.445312 81.773438 124.425781 84.320312 121.027344 " fill-opacity="1" fill-rule="nonzero"/><path fill="#b11327" d="M 84.320312 121.027344 C 83.039062 117.34375 82.339844 113.378906 82.339844 109.25 C 82.339844 96.480469 88.996094 85.292969 98.972656 79.078125 C 105.960938 97.117188 111.378906 119.457031 98.25 136.042969 C 95.445312 139.792969 94.820312 145.105469 97.9375 148.226562 C 100.621094 151.316406 103.941406 153.351562 107.601562 154.761719 C 107.230469 154.773438 106.855469 154.78125 106.484375 154.78125 C 92.019531 154.78125 80.292969 144.921875 80.292969 132.753906 C 80.292969 128.445312 81.773438 124.425781 84.320312 121.027344 " fill-opacity="1" fill-rule="nonzero"/><path fill="#b31327" d="M 117.097656 73.894531 C 134.71875 73.894531 149.273438 87.234375 151.542969 104.523438 C 148.863281 103.8125 146.601562 101.707031 145.335938 99.175781 C 145.648438 102.921875 144.085938 106.359375 142.21875 109.171875 C 138.785156 114.171875 134.109375 107.609375 132.550781 103.859375 C 133.175781 107.609375 129.742188 113.234375 125.691406 110.734375 C 124.132812 109.796875 123.507812 108.546875 122.882812 106.671875 C 122.261719 110.421875 116.648438 113.546875 114.152344 112.609375 C 112.28125 111.671875 110.722656 109.484375 109.789062 107.296875 C 107.917969 110.734375 102.617188 112.296875 98.875 110.734375 C 93.617188 108.277344 88.265625 105.621094 82.757812 103.769531 C 85.347656 86.84375 99.734375 73.894531 117.097656 73.894531 " fill-opacity="1" fill-rule="nonzero"/><path fill="#ec0b62" d="M 65.238281 112.507812 C 68.542969 96.425781 80.554688 85.578125 96.058594 85.597656 C 97.015625 85.925781 97.820312 86.050781 99.515625 86.261719 C 99.984375 86.320312 100.585938 86.285156 101.222656 86.1875 C 103.800781 91.546875 104.511719 106.449219 104.140625 109.433594 C 102.605469 121.742188 97.996094 135.589844 88.269531 144.308594 C 65.238281 165.851562 62.164062 127.894531 65.238281 112.507812 " fill-opacity="1" fill-rule="nonzero"/><path fill="#dc0a5b" d="M 96.058594 85.597656 C 97.015625 85.925781 97.820312 86.050781 99.515625 86.261719 C 99.984375 86.320312 100.585938 86.285156 101.222656 86.1875 C 103.800781 91.546875 104.511719 106.449219 104.140625 109.433594 C 102.605469 121.742188 97.996094 135.589844 88.269531 144.308594 C 87.261719 145.253906 86.292969 146.078125 85.359375 146.800781 C 94.582031 138.011719 96.726562 123.945312 98.5625 111.984375 C 96.691406 123.542969 89.832031 134.167969 80.164062 141.355469 C 84.53125 130.417969 86.402344 118.546875 91.078125 107.609375 C 86.402344 118.546875 82.972656 131.667969 71.746094 137.917969 C 71.746094 125.417969 73.617188 112.296875 81.410156 102.296875 C 74.238281 110.421875 69.875 121.046875 69.5625 131.980469 C 65.199219 119.796875 68.628906 105.734375 77.359375 96.363281 C 73.617188 97.300781 72.679688 100.738281 71.433594 103.546875 C 68.898438 109.964844 66.195312 116.496094 64.246094 123.140625 C 64.292969 119.160156 64.652344 115.429688 65.238281 112.507812 C 68.542969 96.425781 80.554688 85.578125 96.058594 85.597656 " fill-opacity="1" fill-rule="nonzero"/><path fill="#fbc108" d="M 126.902344 150.675781 C 127.046875 150.765625 127.128906 150.824219 127.128906 150.824219 C 133.183594 147.792969 132.320312 159.054688 132.320312 159.054688 C 131.105469 161.242188 129.621094 161.65625 128.550781 161.597656 C 128.714844 158.03125 127.828125 154.292969 126.902344 150.675781 " fill-opacity="1" fill-rule="nonzero"/><path fill="#f9a90c" d="M 121.8125 150.804688 C 121.894531 150.816406 121.941406 150.824219 121.941406 150.824219 C 122.6875 148.210938 126.003906 150.101562 126.902344 150.675781 C 127.828125 154.292969 128.714844 158.03125 128.550781 161.597656 C 127.714844 161.554688 127.128906 161.21875 127.128906 161.21875 C 125.433594 162.242188 123.738281 160.589844 123.085938 159.835938 C 123.355469 156.734375 123.054688 153.574219 121.8125 150.804688 " fill-opacity="1" fill-rule="nonzero"/><path fill="#fbc108" d="M 121.8125 150.804688 C 123.054688 153.574219 123.355469 156.734375 123.085938 159.835938 C 122.90625 159.628906 122.808594 159.488281 122.808594 159.488281 L 118.484375 158.621094 L 118.050781 152.558594 C 117.273438 150.214844 121.058594 150.6875 121.8125 150.804688 " fill-opacity="1" fill-rule="nonzero"/><path fill="#ed1c24" d="M 119.988281 30.089844 C 119.988281 30.089844 119.992188 30.089844 119.992188 30.089844 C 120 30.097656 120 30.09375 119.988281 30.089844 " fill-opacity="1" fill-rule="nonzero"/><g clip-path="url(#e2c05cbd06)"><path fill="#ed1c24" d="M 106.273438 28.808594 C 107.578125 29.851562 108.789062 31.464844 109.496094 33.203125 C 109.9375 31.882812 110.425781 30.605469 110.765625 29.476562 C 111.390625 27.554688 111.554688 26.03125 111.574219 26.027344 C 111.554688 26.019531 112.085938 27.695312 112.066406 29.953125 C 112.074219 31.375 111.917969 32.964844 111.714844 34.386719 C 112.589844 32.582031 114.011719 31.128906 115.476562 30.292969 C 117.9375 28.867188 119.84375 30 119.988281 30.089844 C 119.964844 30.050781 117.640625 29.625 116.011719 31.578125 C 114.320312 33.339844 113.367188 36.429688 113.542969 38.101562 L 110.851562 38.328125 C 110.828125 37.714844 110.882812 37.117188 110.992188 36.535156 L 110.132812 36.363281 C 110.128906 36.496094 110.125 36.625 110.113281 36.753906 L 107.417969 36.546875 C 107.621094 34.347656 106.53125 31.398438 105.054688 29.5 C 103.628906 27.523438 101.890625 26.660156 101.90625 26.652344 C 101.867188 26.65625 104.089844 26.933594 106.273438 28.808594 " fill-opacity="1" fill-rule="nonzero"/></g><path fill="#ef2f21" d="M 91.726562 51.664062 C 91.726562 51.664062 90.328125 28.703125 110.167969 35.144531 C 110.167969 35.144531 132.523438 42.144531 145.65625 59.78125 C 145.65625 59.78125 154.597656 69.300781 146.214844 65.664062 C 146.214844 65.664062 152.082031 81.902344 145.9375 75.460938 C 145.9375 75.460938 150.6875 95.339844 147.332031 95.339844 C 147.332031 95.339844 145.65625 96.460938 142.863281 90.300781 C 142.640625 93.019531 142.261719 95.742188 141.652344 98.402344 C 141.292969 99.988281 141.074219 102.152344 140.015625 103.453125 C 136.617188 107.632812 135.039062 98.996094 134.480469 97.03125 C 134.859375 98.363281 131.882812 102.277344 131.152344 103.238281 C 127.453125 108.121094 123.886719 106.558594 123.023438 100.941406 C 123.269531 102.542969 116.835938 107.007812 115.5625 107.425781 C 110.980469 108.933594 110.5 104.070312 110.167969 100.660156 C 110.34375 102.457031 105.203125 106.136719 103.871094 106.835938 C 99.984375 108.875 99.539062 104.535156 98.433594 101.5 C 99.027344 103.109375 93.882812 105.832031 92.683594 105.738281 C 88.957031 105.441406 90.332031 97.960938 90.332031 95.339844 C 90.332031 95.339844 87.535156 101.5 85.859375 94.78125 C 85.859375 94.78125 95.359375 54.464844 91.726562 51.664062 " fill-opacity="1" fill-rule="nonzero"/><path fill="#61100a" d="M 114.625 76.398438 C 114.625 80.332031 110.300781 83.519531 104.96875 83.519531 C 99.636719 83.519531 95.3125 80.332031 95.3125 76.398438 C 95.3125 72.464844 99.636719 69.273438 104.96875 69.273438 C 110.300781 69.273438 114.625 72.464844 114.625 76.398438 " fill-opacity="1" fill-rule="nonzero"/><path fill="#460a06" d="M 102.488281 79.71875 C 106.214844 77.367188 110.179688 75.691406 114.296875 74.550781 C 113.191406 71.511719 109.4375 69.273438 104.96875 69.273438 C 99.636719 69.273438 95.3125 72.464844 95.3125 76.398438 C 95.3125 78.980469 97.179688 81.246094 99.972656 82.492188 C 100.523438 81.386719 101.382812 80.414062 102.488281 79.71875 " fill-opacity="1" fill-rule="nonzero"/><path fill="#ed1c24" d="M 91.726562 51.664062 C 91.726562 51.664062 90.859375 37.386719 100.222656 34.507812 C 91.644531 41.703125 93.027344 55.238281 99.1875 64.492188 C 100.121094 66.367188 99.808594 68.242188 98.875 69.804688 C 96.691406 73.554688 92.015625 77.617188 94.195312 82.300781 C 96.378906 87.925781 102.617188 91.675781 108.851562 92.300781 C 114.152344 92.613281 118.832031 88.863281 120.703125 84.175781 C 121.949219 87.613281 118.832031 91.675781 121.324219 94.175781 C 125.378906 97.925781 132.550781 96.050781 135.667969 91.363281 C 136.917969 89.800781 136.917969 86.988281 135.667969 84.800781 C 139.273438 87.691406 144.023438 88.070312 148.054688 86.492188 C 148.699219 91.074219 148.886719 95.339844 147.332031 95.339844 C 147.332031 95.339844 145.65625 96.460938 142.863281 90.300781 C 142.640625 93.019531 142.261719 95.742188 141.652344 98.402344 C 141.292969 99.988281 141.074219 102.152344 140.015625 103.453125 C 136.617188 107.632812 135.042969 98.996094 134.480469 97.03125 C 134.859375 98.363281 131.882812 102.277344 131.152344 103.238281 C 127.453125 108.121094 123.886719 106.558594 123.023438 100.941406 C 123.269531 102.542969 116.835938 107.007812 115.5625 107.425781 C 110.980469 108.933594 110.5 104.070312 110.167969 100.660156 C 110.34375 102.457031 105.203125 106.136719 103.871094 106.835938 C 99.984375 108.871094 99.539062 104.535156 98.433594 101.5 C 99.027344 103.109375 93.882812 105.832031 92.683594 105.738281 C 88.957031 105.441406 90.332031 97.960938 90.332031 95.339844 C 90.332031 95.339844 87.535156 101.5 85.859375 94.777344 C 85.859375 94.777344 95.359375 54.464844 91.726562 51.664062 " fill-opacity="1" fill-rule="nonzero"/><path fill="#bb2419" d="M 142.445312 66.332031 C 140.574219 74.457031 129.660156 77.894531 122.800781 73.519531 C 114.691406 68.523438 109.078125 59.148438 112.195312 49.148438 C 113.648438 44.054688 118.492188 41.410156 123.648438 41.214844 C 129.691406 44.585938 136.769531 49.472656 142.671875 56.121094 C 143.230469 59.378906 143.199219 62.796875 142.445312 66.332031 " fill-opacity="1" fill-rule="nonzero"/><path fill="#8a1911" d="M 135.273438 66.957031 C 130.59375 70.707031 123.734375 70.394531 118.433594 67.273438 C 111.886719 63.523438 110.949219 54.773438 114.066406 48.839844 C 115.628906 45.714844 118.121094 43.214844 121.550781 41.964844 C 122.238281 41.664062 122.925781 41.417969 123.609375 41.214844 C 123.621094 41.214844 123.636719 41.214844 123.648438 41.214844 C 128.792969 44.085938 134.6875 48.058594 139.96875 53.28125 C 140.3125 58.445312 138.949219 63.765625 135.273438 66.957031 " fill-opacity="1" fill-rule="nonzero"/><path fill="#ffffff" d="M 113.253906 55.511719 C 113.253906 62.445312 118.863281 68.066406 125.78125 68.066406 C 132.703125 68.066406 138.3125 62.445312 138.3125 55.511719 C 138.3125 48.578125 132.703125 42.957031 125.78125 42.957031 C 118.863281 42.957031 113.253906 48.578125 113.253906 55.511719 " fill-opacity="1" fill-rule="nonzero"/><path fill="#f5fbfc" d="M 117.121094 53.804688 C 117.121094 48.652344 121.414062 44.351562 126.554688 44.351562 C 131.699219 44.351562 135.992188 48.652344 135.992188 53.804688 C 135.992188 58.960938 131.699219 63.261719 126.554688 63.261719 C 121.414062 63.261719 117.121094 58.960938 117.121094 53.804688 Z M 113.253906 55.511719 C 113.253906 62.445312 118.863281 68.066406 125.78125 68.066406 C 132.703125 68.066406 138.3125 62.445312 138.3125 55.511719 C 138.3125 48.578125 132.703125 42.957031 125.78125 42.957031 C 118.863281 42.957031 113.253906 48.578125 113.253906 55.511719 " fill-opacity="1" fill-rule="nonzero"/><path fill="#eaf0f1" d="M 114.542969 54.527344 C 114.542969 48.363281 119.679688 43.214844 125.832031 43.214844 C 131.988281 43.214844 137.125 48.363281 137.125 54.527344 C 137.125 60.695312 131.988281 65.84375 125.832031 65.84375 C 119.679688 65.84375 114.542969 60.695312 114.542969 54.527344 Z M 113.253906 55.511719 C 113.253906 62.445312 118.863281 68.066406 125.78125 68.066406 C 132.703125 68.066406 138.3125 62.445312 138.3125 55.511719 C 138.3125 48.578125 132.703125 42.957031 125.78125 42.957031 C 118.863281 42.957031 113.253906 48.578125 113.253906 55.511719 " fill-opacity="1" fill-rule="nonzero"/><path fill="#231f20" d="M 115.417969 52.871094 C 115.417969 56.976562 118.742188 60.308594 122.839844 60.308594 C 126.9375 60.308594 130.257812 56.976562 130.257812 52.871094 C 130.257812 48.765625 126.9375 45.4375 122.839844 45.4375 C 118.742188 45.4375 115.417969 48.765625 115.417969 52.871094 " fill-opacity="1" fill-rule="nonzero"/><path fill="#ffffff" d="M 116.128906 49.898438 C 116.546875 48.0625 117.875 46.578125 119.609375 45.945312 L 120.800781 49.898438 L 116.128906 49.898438 " fill-opacity="1" fill-rule="nonzero"/><path fill="#eea80b" d="M 113.800781 68.742188 C 113.800781 68.742188 117.996094 83.582031 111.566406 88.902344 C 111.566406 88.902344 104.304688 93.101562 98.15625 81.339844 L 107.65625 80.78125 C 107.65625 80.78125 112.960938 79.660156 112.683594 69.582031 L 113.800781 68.742188 " fill-opacity="1" fill-rule="nonzero"/><path fill="#ed970d" d="M 108.144531 83.519531 C 113.789062 81.363281 113.640625 74.5625 113.292969 69.125 L 113.800781 68.742188 C 113.800781 68.742188 117.996094 83.582031 111.566406 88.902344 C 111.566406 88.902344 105.367188 92.480469 99.578125 83.761719 C 102.390625 84.351562 105.234375 84.488281 108.144531 83.519531 " fill-opacity="1" fill-rule="nonzero"/><path fill="#f68712" d="M 93.402344 49.421875 C 93.402344 49.421875 98.992188 43.824219 105.140625 47.742188 C 105.140625 47.742188 111.285156 51.664062 112.125 59.222656 L 93.402344 49.421875 " fill-opacity="1" fill-rule="nonzero"/><path fill="#fbc108" d="M 97.875 89.742188 C 97.875 89.742188 87.816406 87.5 85.582031 78.261719 C 85.582031 78.261719 84.742188 53.90625 92.289062 49.144531 C 92.289062 49.144531 110.449219 44.105469 115.480469 68.183594 C 115.480469 68.183594 109.890625 75.742188 104.300781 75.742188 C 104.300781 75.742188 95.082031 81.902344 97.875 89.742188 " fill-opacity="1" fill-rule="nonzero"/><path fill="#fab20b" d="M 95.046875 73.519531 C 99.101562 69.769531 105.960938 67.585938 106.273438 61.335938 C 106.535156 54.457031 100.09375 50.492188 93.757812 48.867188 C 98.183594 48.273438 111.320312 48.273438 115.480469 68.183594 C 115.480469 68.183594 109.890625 75.742188 104.300781 75.742188 C 104.300781 75.742188 95.082031 81.898438 97.875 89.738281 C 97.875 89.738281 97.761719 89.714844 97.570312 89.660156 C 92.878906 85.144531 90.03125 78.785156 95.046875 73.519531 " fill-opacity="1" fill-rule="nonzero"/><path fill="#fcf09f" d="M 87.644531 61.1875 C 87.824219 60.359375 88.398438 58 89.460938 55.652344 C 90.476562 53.285156 92.054688 51.03125 93.089844 50.015625 C 90.34375 54.460938 89.234375 59.914062 88.859375 61.410156 C 86.871094 68.839844 87.464844 76.988281 87.558594 76.957031 C 87.425781 77.023438 86.003906 68.347656 87.644531 61.1875 " fill-opacity="1" fill-rule="nonzero"/></svg>